<svg version="1.1" id="Layer_1" xmlns="http://www.w3.org/2000/svg" xmlns:xlink="http://www.w3.org/1999/xlink" x="0px" y="0px"
	 width="100%" viewBox="0 0 496 496" enable-background="new 0 0 496 496" xml:space="preserve">
<path fill="#000000" opacity="1.000000" stroke="none" 
	d="
M240.246643,198.861023 
	C242.784576,204.891373 245.101700,210.601837 247.592606,216.235489 
	C250.572220,222.974457 249.072983,229.930298 249.314392,236.804367 
	C248.783279,236.986893 248.252182,237.169403 247.721085,237.351913 
	C242.145157,224.276993 236.569229,211.202057 230.508942,196.991364 
	C225.491898,205.452850 221.180374,213.024124 216.547409,220.393326 
	C214.646194,223.417404 214.274673,228.295746 209.204803,228.201981 
	C204.230286,228.109985 203.766464,223.336456 201.935471,220.254822 
	C191.386719,202.500732 181.032928,184.630859 170.565887,166.827957 
	C169.857346,165.622833 169.515366,163.988754 167.477783,163.468079 
	C166.542786,166.236511 166.994614,169.054520 166.988052,171.797668 
	C166.932648,194.955795 166.966782,218.114212 166.854843,241.271957 
	C166.843353,243.646698 167.905060,246.944748 163.643860,247.343567 
	C160.074661,247.677628 157.964218,246.848190 157.974197,242.624939 
	C158.048553,211.136246 157.989273,179.647247 158.010162,148.158371 
	C158.011566,146.038055 157.795197,143.547623 160.783859,143.071014 
	C163.913956,142.571838 166.704544,142.960434 168.513260,146.149719 
	C173.031754,154.117081 177.657639,162.023651 182.257065,169.944962 
	C190.202103,183.628189 198.145538,197.312408 206.133759,210.970413 
	C206.949265,212.364746 207.507721,214.027405 209.632355,215.079117 
	C215.381943,206.419434 220.421555,197.307281 225.421310,188.179398 
	C226.400513,186.391724 225.191849,184.627319 224.489746,182.950897 
	C219.730652,171.587296 214.911163,160.248398 210.259064,148.841202 
	C209.566040,147.141830 207.075790,144.666595 210.359863,143.395966 
	C213.348328,142.239685 216.638992,142.166916 218.273651,146.155670 
	C221.430161,153.858017 224.653030,161.533920 227.935532,169.183395 
	C228.900421,171.431976 229.269043,174.032623 231.442490,175.793900 
	C233.990555,175.034103 234.667801,172.625641 235.801636,170.721497 
	C240.573593,162.707611 245.382065,154.710175 249.903427,146.554932 
	C251.811691,143.112961 254.506119,142.435410 257.853485,143.161484 
	C261.531830,143.959351 260.258179,147.104355 260.265961,149.338821 
	C260.351135,173.826126 260.319366,198.313812 261.095734,223.087875 
	C263.927979,216.476944 266.805786,209.885101 269.583710,203.251419 
	C277.236908,184.975586 284.843475,166.680222 292.478973,148.396973 
	C294.892303,142.618195 295.903992,142.149261 303.383148,143.892838 
	C298.332428,156.174332 293.332123,168.333206 288.392731,180.343903 
	C290.285736,182.498413 292.414673,181.805847 294.312469,181.853516 
	C305.130676,182.125122 315.948242,181.691360 326.776703,182.225876 
	C346.257416,183.187439 362.633453,207.650467 351.726135,229.844452 
	C346.137146,241.216843 337.399750,247.873901 324.034668,247.439590 
	C314.381439,247.125885 304.707062,247.507828 295.048157,247.299545 
	C291.311371,247.218979 290.061707,248.562866 290.121552,252.213486 
	C290.282623,262.040802 290.091644,271.873657 290.230927,281.701599 
	C290.279053,285.097382 289.124146,286.469543 285.614166,286.449127 
	C282.012787,286.428192 281.634979,284.481537 281.635834,281.646118 
	C281.644012,254.655945 281.592743,227.665771 281.558716,200.675598 
	C281.557892,200.026978 281.558594,199.378372 281.558594,197.374542 
	C276.378998,207.202957 273.127655,216.473663 269.208710,225.437881 
	C266.607605,231.387604 263.923187,237.318039 261.713531,243.415634 
	C260.278198,247.376480 257.545959,247.770447 254.213791,247.219940 
	C250.708282,246.640808 251.768967,243.687927 251.761826,241.591034 
	C251.675827,216.266785 251.687988,190.942215 251.664246,165.617722 
	C251.663345,164.664871 251.557312,163.712097 251.403549,161.143860 
	C246.009964,170.392044 241.306458,178.318665 236.759476,186.334076 
	C235.315048,188.880310 237.187378,191.132233 238.045914,193.416077 
	C238.689758,195.128799 239.414215,196.811218 240.246643,198.861023 
M340.855804,198.694397 
	C336.040985,192.699127 329.891754,189.897659 322.108154,190.129868 
	C313.118439,190.398041 304.112671,190.304810 295.117950,190.143204 
	C291.478149,190.077789 290.107910,191.357651 290.148254,195.067703 
	C290.293182,208.395981 290.269196,221.727600 290.138336,235.056274 
	C290.104645,238.485458 291.271881,239.781235 294.774170,239.724152 
	C304.935577,239.558609 315.101624,239.702942 325.265320,239.641785 
	C330.114960,239.612595 334.351227,237.856110 337.998657,234.650055 
	C347.868652,225.974365 349.222412,211.565323 340.855804,198.694397 
z"/>
<path fill="#000000" opacity="1.000000" stroke="none" 
	d="
M302.858276,317.099060 
	C301.442291,318.173035 300.703674,317.526886 300.677582,316.364136 
	C300.582550,312.128937 300.224945,307.862885 301.255402,303.403748 
	C305.583252,304.250671 305.102539,309.203949 308.279572,310.761108 
	C311.083862,308.983765 310.982574,304.738708 314.290619,303.347260 
	C316.782349,306.789276 316.865051,314.089600 314.491364,317.821747 
	C311.853149,316.411560 313.751801,313.469696 312.342590,311.557709 
	C310.204498,312.002686 310.631287,315.168060 308.185394,315.430756 
	C305.952881,315.179230 305.853577,312.539001 303.960175,311.249268 
	C302.719513,312.982452 303.655823,315.061951 302.858276,317.099060 
z"/>
<path fill="#000000" opacity="1.000000" stroke="none" 
	d="
M156.316803,312.815796 
	C156.093796,314.787231 156.856735,316.632385 154.647064,317.780670 
	C152.831009,315.653809 154.146347,312.984406 153.133514,310.140137 
	C151.665619,312.136627 150.396072,313.863342 149.160172,315.544312 
	C145.811783,315.371643 146.174271,311.700409 143.875397,310.486053 
	C142.486771,312.671570 144.446671,315.759277 141.463409,318.346344 
	C140.180069,312.938721 140.475143,308.317657 141.237244,303.290619 
	C145.690247,304.399353 145.434586,308.811920 148.281525,310.787231 
	C151.247253,309.127991 151.191010,304.524841 155.016190,303.307068 
	C157.236923,306.149323 155.970840,309.386078 156.316803,312.815796 
z"/>
<path fill="#000000" opacity="1.000000" stroke="none" 
	d="
M334.009216,316.324402 
	C333.686340,311.726440 333.267303,307.523010 334.146942,303.050964 
	C339.323547,304.526093 340.226349,309.668640 343.959625,311.961517 
	C345.438812,309.259247 343.779175,306.159180 346.406158,302.345398 
	C347.838226,308.334229 347.283539,312.973724 346.951111,317.985321 
	C341.609528,317.387329 341.172668,311.418365 336.996887,310.113007 
	C335.776398,312.083954 336.677490,314.143005 336.249176,316.028534 
	C335.937805,317.399231 335.467621,318.400574 334.009216,316.324402 
z"/>
<path fill="#000000" opacity="1.000000" stroke="none" 
	d="
M271.251099,316.945862 
	C270.264862,315.546906 269.291626,314.490173 268.990387,313.267822 
	C268.090637,309.617249 268.726318,306.257996 272.104340,304.074158 
	C274.890564,302.272919 277.930908,302.277161 280.372070,304.580841 
	C283.103516,307.158508 284.077362,310.454742 282.448395,314.095917 
	C280.873810,317.615601 277.982178,318.820221 274.314575,318.273193 
	C273.368439,318.132080 272.484009,317.577240 271.251099,316.945862 
M272.986633,314.570862 
	C275.128113,316.463928 277.205292,316.225098 278.997864,314.162750 
	C280.860199,312.020081 280.889008,309.632385 279.121429,307.425629 
	C277.764862,305.731995 275.931122,304.917114 273.933990,306.326111 
	C271.038483,308.368958 270.570526,311.005310 272.986633,314.570862 
z"/>
<path fill="#000000" opacity="1.000000" stroke="none" 
	d="
M252.105804,317.344055 
	C249.773407,318.991821 247.264542,318.286469 244.823563,318.295502 
	C243.540283,318.300262 242.518875,317.628967 242.333176,316.307159 
	C241.801865,312.525330 241.366104,308.662689 242.321381,304.949310 
	C243.077164,302.011444 248.818848,301.814850 252.327454,304.437073 
	C251.382095,306.213409 249.668930,305.198486 248.338776,305.532166 
	C247.142426,305.832306 245.403702,305.384216 245.329178,307.332275 
	C245.249084,309.426208 246.843262,309.571259 248.419968,309.646912 
	C249.343246,309.691223 250.373947,309.553558 250.989639,310.530548 
	C249.863205,313.002716 245.419098,310.851624 245.649643,313.919739 
	C245.912949,317.423645 249.941956,315.054199 251.734299,316.628265 
	C251.858749,316.737549 251.975220,316.855957 252.105804,317.344055 
z"/>
<path fill="#000000" opacity="1.000000" stroke="none" 
	d="
M196.687347,307.210571 
	C197.764771,302.669952 200.728928,301.619141 205.359985,303.670868 
	C209.117340,305.335541 210.742645,310.749603 208.692902,314.773071 
	C207.119415,317.861664 201.241623,319.632233 198.174164,318.025330 
	C196.911484,317.363831 196.756744,316.276184 196.729202,315.119110 
	C196.670212,312.640228 196.689514,310.159454 196.687347,307.210571 
M206.676559,309.893555 
	C205.695618,306.543060 203.467972,304.064941 200.296844,306.427429 
	C198.109924,308.056671 199.144226,311.735260 199.705627,314.452911 
	C200.032883,316.036987 201.724274,315.926605 203.064713,315.707886 
	C205.931030,315.240204 206.765305,313.246857 206.676559,309.893555 
z"/>
<path fill="#000000" opacity="1.000000" stroke="none" 
	d="
M326.559204,311.834503 
	C324.830292,312.226898 322.820770,311.824066 322.721710,313.897522 
	C322.617218,316.083832 324.581726,315.791351 326.005554,315.950409 
	C327.426147,316.109070 328.985596,315.848236 330.351776,317.684326 
	C326.678192,318.379517 323.365906,319.841400 320.335022,317.282501 
	C319.005371,316.159943 319.424500,304.519745 320.745361,303.775635 
	C323.731537,302.093445 326.809723,302.145935 329.930756,303.988861 
	C328.057648,307.072327 324.551392,304.646027 322.611084,306.795776 
	C322.701508,310.921478 327.013611,308.585388 328.646210,310.794952 
	C327.991974,311.161041 327.453217,311.462524 326.559204,311.834503 
z"/>
<path fill="#000000" opacity="1.000000" stroke="none" 
	d="
M218.289612,315.857056 
	C220.048721,316.144623 221.767761,315.563232 222.660309,317.788666 
	C219.247055,318.290436 215.917786,319.842896 212.921921,317.069305 
	C211.983948,316.200928 212.682480,304.663910 213.419296,303.826294 
	C214.808029,302.247528 219.193649,302.369598 222.684448,304.115784 
	C221.870209,306.133942 220.073090,305.784546 218.498306,305.821747 
	C217.120865,305.854248 215.586548,305.709076 215.648575,307.654968 
	C215.705475,309.439758 217.196777,309.537323 218.579178,309.616302 
	C219.558548,309.672241 220.603439,309.540588 221.413788,310.419403 
	C220.882507,312.480804 219.081879,311.738770 217.770599,312.022522 
	C216.732346,312.247253 215.751205,312.615997 215.641754,313.776489 
	C215.495361,315.328674 216.667343,315.672363 218.289612,315.857056 
z"/>
<path fill="#000000" opacity="1.000000" stroke="none" 
	d="
M182.439911,302.947083 
	C185.650421,304.022095 187.517090,305.811157 186.974686,308.951874 
	C186.501373,311.692566 184.705780,313.426331 181.772995,313.301086 
	C178.601761,313.165619 178.448990,315.892792 177.569290,318.070618 
	C175.760605,315.669800 174.863846,306.149658 176.117584,304.277069 
	C177.609314,302.048981 179.931732,302.840271 182.439911,302.947083 
M178.866379,306.422882 
	C178.042038,308.641296 178.178162,310.411285 181.077164,310.579773 
	C182.718521,310.675171 184.379486,309.905121 184.173508,308.195190 
	C183.831284,305.354218 181.737701,305.068390 178.866379,306.422882 
z"/>
<path fill="#000000" opacity="1.000000" stroke="none" 
	d="
M295.887878,312.136292 
	C292.947510,313.916016 288.203156,312.415131 288.167175,318.245728 
	C286.115845,313.331360 286.153290,308.792114 287.155457,304.485413 
	C287.748138,301.938416 290.762115,302.707733 292.816925,302.942932 
	C295.606201,303.262238 297.341980,304.971588 297.647217,307.811066 
	C297.810455,309.329559 297.326996,310.766235 295.887878,312.136292 
M294.664978,308.433655 
	C294.412323,305.711334 292.733521,305.031067 290.500885,305.929321 
	C289.030090,306.520996 288.871002,308.289734 289.650482,309.354736 
	C291.173340,311.435394 292.968567,311.068970 294.664978,308.433655 
z"/>
<path fill="#000000" opacity="1.000000" stroke="none" 
	d="
M160.284286,307.731445 
	C159.788116,306.178436 158.923233,305.012634 159.845993,303.338531 
	C163.898315,305.194641 162.943329,310.316254 166.072983,312.813049 
	C168.257004,309.808838 168.503052,305.688965 171.984116,303.551178 
	C171.685471,309.008484 169.117706,313.516724 166.553772,318.477875 
	C162.288651,315.753113 162.260529,311.385132 160.284286,307.731445 
z"/>
<path fill="#000000" opacity="1.000000" stroke="none" 
	d="
M237.919281,307.881683 
	C235.989853,311.479126 235.780243,315.585724 232.055161,318.646881 
	C229.147476,313.770203 226.947052,309.037018 225.238968,302.862091 
	C230.469940,305.059998 229.249374,310.428284 232.532013,312.721039 
	C235.321671,310.199158 234.498154,305.557617 237.971344,303.501526 
	C239.945724,304.976288 238.267090,306.261444 237.919281,307.881683 
z"/>
<path fill="#000000" opacity="1.000000" stroke="none" 
	d="
M357.304016,315.600464 
	C356.906921,317.287842 356.184784,318.630676 355.214325,316.758484 
	C354.514862,315.409027 354.668427,313.518066 354.749420,311.883911 
	C354.920624,308.430206 354.868805,305.214691 350.031219,304.529510 
	C354.274353,302.199402 358.291840,302.230042 362.202881,304.615662 
	C355.086700,305.860840 357.940979,311.207214 357.304016,315.600464 
z"/>
<path fill="#000000" opacity="1.000000" stroke="none" 
	d="
M264.925842,316.242249 
	C265.483887,316.590851 265.907745,317.003204 265.869202,317.052277 
	C264.893524,318.294098 259.940430,318.920990 257.798859,318.296295 
	C255.592178,317.652618 255.707718,315.914124 255.780365,314.293579 
	C255.936951,310.799042 254.827240,307.151001 256.924622,303.233948 
	C258.997406,305.332581 258.504425,307.607758 258.277466,309.473389 
	C257.672974,314.442017 259.550232,316.678955 264.925842,316.242249 
z"/>
</svg>