<svg xmlns="http://www.w3.org/2000/svg" xmlns:xlink="http://www.w3.org/1999/xlink" width="500" zoomAndPan="magnify" viewBox="0 0 375 374.999991" height="500" preserveAspectRatio="xMidYMid meet" version="1.0"><defs><g/></defs><g fill="#000000" fill-opacity="1"><g transform="translate(127.364646, 251.570707)"><g><path d="M 23.515625 -170.40625 L 36.484375 -170.40625 L 64.796875 -15.359375 L 158.640625 -170.40625 L 171.59375 -170.40625 L 66.953125 0 L 55.6875 0 Z M 23.515625 -170.40625 "/></g></g></g><g fill="#ffffff" fill-opacity="1"><g transform="translate(8.634947, 261.803757)"><g><path d="M 172.3125 0 L 172.3125 -138.71875 L 110.640625 -30.953125 L 100.078125 -30.953125 L 38.15625 -138.71875 L 38.15625 0 L 21.359375 0 L 21.359375 -170.40625 L 38.640625 -170.40625 L 105.125 -53.765625 L 172.078125 -170.40625 L 189.125 -170.40625 L 189.125 0 Z M 172.3125 0 "/></g></g></g><g fill="#000000" fill-opacity="1"><g transform="translate(14.307219, 251.570707)"><g><path d="M 172.3125 0 L 172.3125 -138.71875 L 110.640625 -30.953125 L 100.078125 -30.953125 L 38.15625 -138.71875 L 38.15625 0 L 21.359375 0 L 21.359375 -170.40625 L 38.640625 -170.40625 L 105.125 -53.765625 L 172.078125 -170.40625 L 189.125 -170.40625 L 189.125 0 Z M 172.3125 0 "/></g></g></g><g fill="#ffffff" fill-opacity="1"><g transform="translate(42.948308, 368.992008)"><g><path d="M 18.84375 0 L 18.84375 -15.15625 L 12.09375 -3.390625 L 10.9375 -3.390625 L 4.171875 -15.15625 L 4.171875 0 L 2.328125 0 L 2.328125 -18.625 L 4.21875 -18.625 L 11.484375 -5.875 L 18.8125 -18.625 L 20.671875 -18.625 L 20.671875 0 Z M 18.84375 0 "/></g></g></g><g fill="#ffffff" fill-opacity="1"><g transform="translate(68.021582, 368.992008)"><g><path d="M 2.25 -18.625 L 8.921875 -2.28125 L 15.5625 -18.625 L 17.46875 -18.625 L 9.765625 0 L 8.078125 0 L 0.34375 -18.625 Z M 2.25 -18.625 "/></g></g></g><g fill="#ffffff" fill-opacity="1"><g transform="translate(87.901986, 368.992008)"><g><path d="M 2.328125 0 L 2.328125 -18.625 L 10.046875 -18.625 C 10.847656 -18.625 11.585938 -18.457031 12.265625 -18.125 C 12.941406 -17.789062 13.523438 -17.335938 14.015625 -16.765625 C 14.503906 -16.203125 14.882812 -15.578125 15.15625 -14.890625 C 15.4375 -14.203125 15.578125 -13.5 15.578125 -12.78125 C 15.578125 -11.757812 15.351562 -10.796875 14.90625 -9.890625 C 14.46875 -8.992188 13.84375 -8.265625 13.03125 -7.703125 C 12.226562 -7.148438 11.285156 -6.875 10.203125 -6.875 L 4.171875 -6.875 L 4.171875 0 Z M 4.171875 -8.5 L 10.125 -8.5 C 10.863281 -8.5 11.503906 -8.695312 12.046875 -9.09375 C 12.585938 -9.5 13.003906 -10.023438 13.296875 -10.671875 C 13.597656 -11.316406 13.75 -12.019531 13.75 -12.78125 C 13.75 -13.550781 13.570312 -14.257812 13.21875 -14.90625 C 12.875 -15.550781 12.414062 -16.0625 11.84375 -16.4375 C 11.28125 -16.8125 10.65625 -17 9.96875 -17 L 4.171875 -17 Z M 4.171875 -8.5 "/></g></g></g><g fill="#ffffff" fill-opacity="1"><g transform="translate(106.287473, 368.992008)"><g/></g></g><g fill="#ffffff" fill-opacity="1"><g transform="translate(115.047782, 368.992008)"><g><path d="M 2.328125 0 L 2.328125 -18.625 L 8.65625 -18.625 C 10.632812 -18.625 12.28125 -18.207031 13.59375 -17.375 C 14.914062 -16.550781 15.910156 -15.429688 16.578125 -14.015625 C 17.242188 -12.609375 17.578125 -11.050781 17.578125 -9.34375 C 17.578125 -7.445312 17.210938 -5.800781 16.484375 -4.40625 C 15.765625 -3.007812 14.734375 -1.925781 13.390625 -1.15625 C 12.054688 -0.382812 10.476562 0 8.65625 0 Z M 15.734375 -9.34375 C 15.734375 -10.820312 15.457031 -12.140625 14.90625 -13.296875 C 14.363281 -14.453125 13.566406 -15.359375 12.515625 -16.015625 C 11.460938 -16.671875 10.175781 -17 8.65625 -17 L 4.171875 -17 L 4.171875 -1.625 L 8.65625 -1.625 C 10.195312 -1.625 11.488281 -1.960938 12.53125 -2.640625 C 13.582031 -3.328125 14.378906 -4.25 14.921875 -5.40625 C 15.460938 -6.570312 15.734375 -7.882812 15.734375 -9.34375 Z M 15.734375 -9.34375 "/></g></g></g><g fill="#ffffff" fill-opacity="1"><g transform="translate(135.872348, 368.992008)"><g><path d="M 14.84375 -1.625 L 14.84375 0 L 2.328125 0 L 2.328125 -18.625 L 14.609375 -18.625 L 14.609375 -17 L 4.171875 -17 L 4.171875 -10.28125 L 13.28125 -10.28125 L 13.28125 -8.734375 L 4.171875 -8.734375 L 4.171875 -1.625 Z M 14.84375 -1.625 "/></g></g></g><g fill="#ffffff" fill-opacity="1"><g transform="translate(153.916887, 368.992008)"><g><path d="M 2.25 -18.625 L 8.921875 -2.28125 L 15.5625 -18.625 L 17.46875 -18.625 L 9.765625 0 L 8.078125 0 L 0.34375 -18.625 Z M 2.25 -18.625 "/></g></g></g><g fill="#ffffff" fill-opacity="1"><g transform="translate(173.797287, 368.992008)"><g><path d="M 14.84375 -1.625 L 14.84375 0 L 2.328125 0 L 2.328125 -18.625 L 14.609375 -18.625 L 14.609375 -17 L 4.171875 -17 L 4.171875 -10.28125 L 13.28125 -10.28125 L 13.28125 -8.734375 L 4.171875 -8.734375 L 4.171875 -1.625 Z M 14.84375 -1.625 "/></g></g></g><g fill="#ffffff" fill-opacity="1"><g transform="translate(191.841826, 368.992008)"><g><path d="M 2.328125 0 L 2.328125 -18.625 L 4.171875 -18.625 L 4.171875 -1.625 L 14.921875 -1.625 L 14.921875 0 Z M 2.328125 0 "/></g></g></g><g fill="#ffffff" fill-opacity="1"><g transform="translate(209.204469, 368.992008)"><g><path d="M 9.84375 0.125 C 8.53125 0.125 7.335938 -0.132812 6.265625 -0.65625 C 5.203125 -1.175781 4.285156 -1.882812 3.515625 -2.78125 C 2.742188 -3.6875 2.148438 -4.703125 1.734375 -5.828125 C 1.316406 -6.960938 1.109375 -8.125 1.109375 -9.3125 C 1.109375 -10.550781 1.320312 -11.734375 1.75 -12.859375 C 2.1875 -13.992188 2.800781 -15 3.59375 -15.875 C 4.394531 -16.757812 5.328125 -17.457031 6.390625 -17.96875 C 7.460938 -18.488281 8.617188 -18.75 9.859375 -18.75 C 11.171875 -18.75 12.359375 -18.476562 13.421875 -17.9375 C 14.492188 -17.394531 15.410156 -16.671875 16.171875 -15.765625 C 16.929688 -14.859375 17.519531 -13.84375 17.9375 -12.71875 C 18.363281 -11.601562 18.578125 -10.457031 18.578125 -9.28125 C 18.578125 -8.039062 18.359375 -6.859375 17.921875 -5.734375 C 17.484375 -4.609375 16.867188 -3.601562 16.078125 -2.71875 C 15.296875 -1.832031 14.367188 -1.132812 13.296875 -0.625 C 12.234375 -0.125 11.082031 0.125 9.84375 0.125 Z M 2.9375 -9.3125 C 2.9375 -8.300781 3.101562 -7.328125 3.4375 -6.390625 C 3.769531 -5.453125 4.238281 -4.617188 4.84375 -3.890625 C 5.457031 -3.171875 6.1875 -2.59375 7.03125 -2.15625 C 7.882812 -1.726562 8.820312 -1.515625 9.84375 -1.515625 C 10.90625 -1.515625 11.859375 -1.738281 12.703125 -2.1875 C 13.554688 -2.632812 14.285156 -3.226562 14.890625 -3.96875 C 15.492188 -4.71875 15.953125 -5.554688 16.265625 -6.484375 C 16.578125 -7.410156 16.734375 -8.351562 16.734375 -9.3125 C 16.734375 -10.320312 16.566406 -11.289062 16.234375 -12.21875 C 15.898438 -13.144531 15.421875 -13.972656 14.796875 -14.703125 C 14.179688 -15.441406 13.453125 -16.019531 12.609375 -16.4375 C 11.773438 -16.863281 10.851562 -17.078125 9.84375 -17.078125 C 8.789062 -17.078125 7.835938 -16.859375 6.984375 -16.421875 C 6.140625 -15.984375 5.414062 -15.390625 4.8125 -14.640625 C 4.207031 -13.898438 3.742188 -13.066406 3.421875 -12.140625 C 3.097656 -11.210938 2.9375 -10.269531 2.9375 -9.3125 Z M 2.9375 -9.3125 "/></g></g></g><g fill="#ffffff" fill-opacity="1"><g transform="translate(230.97319, 368.992008)"><g><path d="M 2.328125 0 L 2.328125 -18.625 L 10.046875 -18.625 C 10.847656 -18.625 11.585938 -18.457031 12.265625 -18.125 C 12.941406 -17.789062 13.523438 -17.335938 14.015625 -16.765625 C 14.503906 -16.203125 14.882812 -15.578125 15.15625 -14.890625 C 15.4375 -14.203125 15.578125 -13.5 15.578125 -12.78125 C 15.578125 -11.757812 15.351562 -10.796875 14.90625 -9.890625 C 14.46875 -8.992188 13.84375 -8.265625 13.03125 -7.703125 C 12.226562 -7.148438 11.285156 -6.875 10.203125 -6.875 L 4.171875 -6.875 L 4.171875 0 Z M 4.171875 -8.5 L 10.125 -8.5 C 10.863281 -8.5 11.503906 -8.695312 12.046875 -9.09375 C 12.585938 -9.5 13.003906 -10.023438 13.296875 -10.671875 C 13.597656 -11.316406 13.75 -12.019531 13.75 -12.78125 C 13.75 -13.550781 13.570312 -14.257812 13.21875 -14.90625 C 12.875 -15.550781 12.414062 -16.0625 11.84375 -16.4375 C 11.28125 -16.8125 10.65625 -17 9.96875 -17 L 4.171875 -17 Z M 4.171875 -8.5 "/></g></g></g><g fill="#ffffff" fill-opacity="1"><g transform="translate(249.358671, 368.992008)"><g><path d="M 18.84375 0 L 18.84375 -15.15625 L 12.09375 -3.390625 L 10.9375 -3.390625 L 4.171875 -15.15625 L 4.171875 0 L 2.328125 0 L 2.328125 -18.625 L 4.21875 -18.625 L 11.484375 -5.875 L 18.8125 -18.625 L 20.671875 -18.625 L 20.671875 0 Z M 18.84375 0 "/></g></g></g><g fill="#ffffff" fill-opacity="1"><g transform="translate(274.431942, 368.992008)"><g><path d="M 14.84375 -1.625 L 14.84375 0 L 2.328125 0 L 2.328125 -18.625 L 14.609375 -18.625 L 14.609375 -17 L 4.171875 -17 L 4.171875 -10.28125 L 13.28125 -10.28125 L 13.28125 -8.734375 L 4.171875 -8.734375 L 4.171875 -1.625 Z M 14.84375 -1.625 "/></g></g></g><g fill="#ffffff" fill-opacity="1"><g transform="translate(292.476481, 368.992008)"><g><path d="M 4.171875 -15.234375 L 4.171875 0 L 2.328125 0 L 2.328125 -18.625 L 3.859375 -18.625 L 16.078125 -3.09375 L 16.078125 -18.59375 L 17.921875 -18.59375 L 17.921875 0 L 16.21875 0 Z M 4.171875 -15.234375 "/></g></g></g><g fill="#ffffff" fill-opacity="1"><g transform="translate(314.795961, 368.992008)"><g><path d="M 15.5625 -17 L 8.921875 -17 L 8.921875 0 L 7.078125 0 L 7.078125 -17 L 0.453125 -17 L 0.453125 -18.625 L 15.5625 -18.625 Z M 15.5625 -17 "/></g></g></g><g fill="#000000" fill-opacity="1"><g transform="translate(43.568344, 367.873423)"><g><path d="M 18.84375 0 L 18.84375 -15.15625 L 12.09375 -3.390625 L 10.9375 -3.390625 L 4.171875 -15.15625 L 4.171875 0 L 2.328125 0 L 2.328125 -18.625 L 4.21875 -18.625 L 11.484375 -5.875 L 18.8125 -18.625 L 20.671875 -18.625 L 20.671875 0 Z M 18.84375 0 "/></g></g></g><g fill="#000000" fill-opacity="1"><g transform="translate(68.641618, 367.873423)"><g><path d="M 2.25 -18.625 L 8.921875 -2.28125 L 15.5625 -18.625 L 17.46875 -18.625 L 9.765625 0 L 8.078125 0 L 0.34375 -18.625 Z M 2.25 -18.625 "/></g></g></g><g fill="#000000" fill-opacity="1"><g transform="translate(88.522021, 367.873423)"><g><path d="M 2.328125 0 L 2.328125 -18.625 L 10.046875 -18.625 C 10.847656 -18.625 11.585938 -18.457031 12.265625 -18.125 C 12.941406 -17.789062 13.523438 -17.335938 14.015625 -16.765625 C 14.503906 -16.203125 14.882812 -15.578125 15.15625 -14.890625 C 15.4375 -14.203125 15.578125 -13.5 15.578125 -12.78125 C 15.578125 -11.757812 15.351562 -10.796875 14.90625 -9.890625 C 14.46875 -8.992188 13.84375 -8.265625 13.03125 -7.703125 C 12.226562 -7.148438 11.285156 -6.875 10.203125 -6.875 L 4.171875 -6.875 L 4.171875 0 Z M 4.171875 -8.5 L 10.125 -8.5 C 10.863281 -8.5 11.503906 -8.695312 12.046875 -9.09375 C 12.585938 -9.5 13.003906 -10.023438 13.296875 -10.671875 C 13.597656 -11.316406 13.75 -12.019531 13.75 -12.78125 C 13.75 -13.550781 13.570312 -14.257812 13.21875 -14.90625 C 12.875 -15.550781 12.414062 -16.0625 11.84375 -16.4375 C 11.28125 -16.8125 10.65625 -17 9.96875 -17 L 4.171875 -17 Z M 4.171875 -8.5 "/></g></g></g><g fill="#000000" fill-opacity="1"><g transform="translate(106.907508, 367.873423)"><g/></g></g><g fill="#000000" fill-opacity="1"><g transform="translate(115.667817, 367.873423)"><g><path d="M 2.328125 0 L 2.328125 -18.625 L 8.65625 -18.625 C 10.632812 -18.625 12.28125 -18.207031 13.59375 -17.375 C 14.914062 -16.550781 15.910156 -15.429688 16.578125 -14.015625 C 17.242188 -12.609375 17.578125 -11.050781 17.578125 -9.34375 C 17.578125 -7.445312 17.210938 -5.800781 16.484375 -4.40625 C 15.765625 -3.007812 14.734375 -1.925781 13.390625 -1.15625 C 12.054688 -0.382812 10.476562 0 8.65625 0 Z M 15.734375 -9.34375 C 15.734375 -10.820312 15.457031 -12.140625 14.90625 -13.296875 C 14.363281 -14.453125 13.566406 -15.359375 12.515625 -16.015625 C 11.460938 -16.671875 10.175781 -17 8.65625 -17 L 4.171875 -17 L 4.171875 -1.625 L 8.65625 -1.625 C 10.195312 -1.625 11.488281 -1.960938 12.53125 -2.640625 C 13.582031 -3.328125 14.378906 -4.25 14.921875 -5.40625 C 15.460938 -6.570312 15.734375 -7.882812 15.734375 -9.34375 Z M 15.734375 -9.34375 "/></g></g></g><g fill="#000000" fill-opacity="1"><g transform="translate(136.492383, 367.873423)"><g><path d="M 14.84375 -1.625 L 14.84375 0 L 2.328125 0 L 2.328125 -18.625 L 14.609375 -18.625 L 14.609375 -17 L 4.171875 -17 L 4.171875 -10.28125 L 13.28125 -10.28125 L 13.28125 -8.734375 L 4.171875 -8.734375 L 4.171875 -1.625 Z M 14.84375 -1.625 "/></g></g></g><g fill="#000000" fill-opacity="1"><g transform="translate(154.536922, 367.873423)"><g><path d="M 2.25 -18.625 L 8.921875 -2.28125 L 15.5625 -18.625 L 17.46875 -18.625 L 9.765625 0 L 8.078125 0 L 0.34375 -18.625 Z M 2.25 -18.625 "/></g></g></g><g fill="#000000" fill-opacity="1"><g transform="translate(174.417323, 367.873423)"><g><path d="M 14.84375 -1.625 L 14.84375 0 L 2.328125 0 L 2.328125 -18.625 L 14.609375 -18.625 L 14.609375 -17 L 4.171875 -17 L 4.171875 -10.28125 L 13.28125 -10.28125 L 13.28125 -8.734375 L 4.171875 -8.734375 L 4.171875 -1.625 Z M 14.84375 -1.625 "/></g></g></g><g fill="#000000" fill-opacity="1"><g transform="translate(192.461862, 367.873423)"><g><path d="M 2.328125 0 L 2.328125 -18.625 L 4.171875 -18.625 L 4.171875 -1.625 L 14.921875 -1.625 L 14.921875 0 Z M 2.328125 0 "/></g></g></g><g fill="#000000" fill-opacity="1"><g transform="translate(209.824504, 367.873423)"><g><path d="M 9.84375 0.125 C 8.53125 0.125 7.335938 -0.132812 6.265625 -0.65625 C 5.203125 -1.175781 4.285156 -1.882812 3.515625 -2.78125 C 2.742188 -3.6875 2.148438 -4.703125 1.734375 -5.828125 C 1.316406 -6.960938 1.109375 -8.125 1.109375 -9.3125 C 1.109375 -10.550781 1.320312 -11.734375 1.75 -12.859375 C 2.1875 -13.992188 2.800781 -15 3.59375 -15.875 C 4.394531 -16.757812 5.328125 -17.457031 6.390625 -17.96875 C 7.460938 -18.488281 8.617188 -18.75 9.859375 -18.75 C 11.171875 -18.75 12.359375 -18.476562 13.421875 -17.9375 C 14.492188 -17.394531 15.410156 -16.671875 16.171875 -15.765625 C 16.929688 -14.859375 17.519531 -13.84375 17.9375 -12.71875 C 18.363281 -11.601562 18.578125 -10.457031 18.578125 -9.28125 C 18.578125 -8.039062 18.359375 -6.859375 17.921875 -5.734375 C 17.484375 -4.609375 16.867188 -3.601562 16.078125 -2.71875 C 15.296875 -1.832031 14.367188 -1.132812 13.296875 -0.625 C 12.234375 -0.125 11.082031 0.125 9.84375 0.125 Z M 2.9375 -9.3125 C 2.9375 -8.300781 3.101562 -7.328125 3.4375 -6.390625 C 3.769531 -5.453125 4.238281 -4.617188 4.84375 -3.890625 C 5.457031 -3.171875 6.1875 -2.59375 7.03125 -2.15625 C 7.882812 -1.726562 8.820312 -1.515625 9.84375 -1.515625 C 10.90625 -1.515625 11.859375 -1.738281 12.703125 -2.1875 C 13.554688 -2.632812 14.285156 -3.226562 14.890625 -3.96875 C 15.492188 -4.71875 15.953125 -5.554688 16.265625 -6.484375 C 16.578125 -7.410156 16.734375 -8.351562 16.734375 -9.3125 C 16.734375 -10.320312 16.566406 -11.289062 16.234375 -12.21875 C 15.898438 -13.144531 15.421875 -13.972656 14.796875 -14.703125 C 14.179688 -15.441406 13.453125 -16.019531 12.609375 -16.4375 C 11.773438 -16.863281 10.851562 -17.078125 9.84375 -17.078125 C 8.789062 -17.078125 7.835938 -16.859375 6.984375 -16.421875 C 6.140625 -15.984375 5.414062 -15.390625 4.8125 -14.640625 C 4.207031 -13.898438 3.742188 -13.066406 3.421875 -12.140625 C 3.097656 -11.210938 2.9375 -10.269531 2.9375 -9.3125 Z M 2.9375 -9.3125 "/></g></g></g><g fill="#000000" fill-opacity="1"><g transform="translate(231.593225, 367.873423)"><g><path d="M 2.328125 0 L 2.328125 -18.625 L 10.046875 -18.625 C 10.847656 -18.625 11.585938 -18.457031 12.265625 -18.125 C 12.941406 -17.789062 13.523438 -17.335938 14.015625 -16.765625 C 14.503906 -16.203125 14.882812 -15.578125 15.15625 -14.890625 C 15.4375 -14.203125 15.578125 -13.5 15.578125 -12.78125 C 15.578125 -11.757812 15.351562 -10.796875 14.90625 -9.890625 C 14.46875 -8.992188 13.84375 -8.265625 13.03125 -7.703125 C 12.226562 -7.148438 11.285156 -6.875 10.203125 -6.875 L 4.171875 -6.875 L 4.171875 0 Z M 4.171875 -8.5 L 10.125 -8.5 C 10.863281 -8.5 11.503906 -8.695312 12.046875 -9.09375 C 12.585938 -9.5 13.003906 -10.023438 13.296875 -10.671875 C 13.597656 -11.316406 13.75 -12.019531 13.75 -12.78125 C 13.75 -13.550781 13.570312 -14.257812 13.21875 -14.90625 C 12.875 -15.550781 12.414062 -16.0625 11.84375 -16.4375 C 11.28125 -16.8125 10.65625 -17 9.96875 -17 L 4.171875 -17 Z M 4.171875 -8.5 "/></g></g></g><g fill="#000000" fill-opacity="1"><g transform="translate(249.978707, 367.873423)"><g><path d="M 18.84375 0 L 18.84375 -15.15625 L 12.09375 -3.390625 L 10.9375 -3.390625 L 4.171875 -15.15625 L 4.171875 0 L 2.328125 0 L 2.328125 -18.625 L 4.21875 -18.625 L 11.484375 -5.875 L 18.8125 -18.625 L 20.671875 -18.625 L 20.671875 0 Z M 18.84375 0 "/></g></g></g><g fill="#000000" fill-opacity="1"><g transform="translate(275.051978, 367.873423)"><g><path d="M 14.84375 -1.625 L 14.84375 0 L 2.328125 0 L 2.328125 -18.625 L 14.609375 -18.625 L 14.609375 -17 L 4.171875 -17 L 4.171875 -10.28125 L 13.28125 -10.28125 L 13.28125 -8.734375 L 4.171875 -8.734375 L 4.171875 -1.625 Z M 14.84375 -1.625 "/></g></g></g><g fill="#000000" fill-opacity="1"><g transform="translate(293.096517, 367.873423)"><g><path d="M 4.171875 -15.234375 L 4.171875 0 L 2.328125 0 L 2.328125 -18.625 L 3.859375 -18.625 L 16.078125 -3.09375 L 16.078125 -18.59375 L 17.921875 -18.59375 L 17.921875 0 L 16.21875 0 Z M 4.171875 -15.234375 "/></g></g></g><g fill="#000000" fill-opacity="1"><g transform="translate(315.415996, 367.873423)"><g><path d="M 15.5625 -17 L 8.921875 -17 L 8.921875 0 L 7.078125 0 L 7.078125 -17 L 0.453125 -17 L 0.453125 -18.625 L 15.5625 -18.625 Z M 15.5625 -17 "/></g></g></g><g fill="#000000" fill-opacity="1"><g transform="translate(226.048862, 315.749979)"><g><path d="M 22.3125 0 L 22.3125 -170.40625 L 92.40625 -170.40625 C 99.601562 -170.40625 106.203125 -168.882812 112.203125 -165.84375 C 118.203125 -162.800781 123.441406 -158.757812 127.921875 -153.71875 C 132.398438 -148.675781 135.878906 -143.035156 138.359375 -136.796875 C 140.835938 -130.554688 142.078125 -124.15625 142.078125 -117.59375 C 142.078125 -108.476562 140.035156 -99.878906 135.953125 -91.796875 C 131.878906 -83.722656 126.28125 -77.125 119.15625 -72 C 112.039062 -66.875 103.601562 -64.3125 93.84375 -64.3125 L 34.5625 -64.3125 L 34.5625 0 Z M 34.5625 -75.59375 L 93.359375 -75.59375 C 100.878906 -75.59375 107.359375 -77.59375 112.796875 -81.59375 C 118.234375 -85.59375 122.390625 -90.789062 125.265625 -97.1875 C 128.148438 -103.59375 129.59375 -110.394531 129.59375 -117.59375 C 129.59375 -125.113281 127.875 -132.035156 124.4375 -138.359375 C 121 -144.679688 116.4375 -149.757812 110.75 -153.59375 C 105.070312 -157.4375 98.796875 -159.359375 91.921875 -159.359375 L 34.5625 -159.359375 Z M 34.5625 -75.59375 "/></g></g></g></svg>